# xmcd
# 
# Track frame offsets:
#     150
#     11167
#     30411
#     41751
#     57411
#     72168
#     88579
#     106663
#     126494
#     146764
#     154629
#     168363
# 
# Disc length: 2399
# 
# Revision: 0
# Processed by: cddbd v1.5.2PL0 Copyright (c) Steve Scherf et al.
# Submitted via: fre:ac v1.0.17
# 
DISCID=9e095d0c
DTITLE=Peter Carlsson - Några grammofoninspelningar
DYEAR=0
DGENRE=Blues
TTITLE0=Utbränd
TTITLE1=Avbefolkningsblues
TTITLE2=Dansning
TTITLE3=Vad är det för nå´n lapp-
TTITLE4=Fyra små vedträn
TTITLE5=Lyckliga gatan
TTITLE6=Ales ängar
TTITLE7=John Silver
TTITLE8=Helgdagskväll i timmerkojan
TTITLE9=Hjortingen
TTITLE10=Det är bäst att man tar för si
TTITLE11=Svartvit calypso
EXTD=
EXTT0=
EXTT1=
EXTT2=
EXTT3=
EXTT4=
EXTT5=
EXTT6=
EXTT7=
EXTT8=
EXTT9=
EXTT10=
EXTT11=
PLAYORDER=
